<svg width="60" height="46" viewBox="0 0 60 46" fill="none" xmlns="http://www.w3.org/2000/svg">
<path d="M15.7621 0.0909424C20.12 0.0909424 23.7266 1.62059 26.8824 4.81888C28.3851 6.20944 29.437 8.01715 30.3387 10.103C31.2403 12.1888 31.6911 14.2747 31.6911 16.3605C31.6911 20.8103 30.1884 25.2601 27.0326 29.7099C23.8769 34.2987 19.8195 38.0532 14.5599 41.2515C10.2019 43.8936 6.7456 45.2841 4.19094 45.2841C3.13902 45.2841 2.38765 45.006 1.63628 44.4498C1.03518 43.8936 0.584351 43.1983 0.584351 42.2249C0.584351 40.8344 1.486 39.7219 3.43957 38.7485C7.9478 36.5236 11.4041 34.4378 13.5079 32.2129C15.4615 30.2661 16.5134 28.7365 16.5134 27.7631C16.5134 26.9288 15.7621 26.3725 14.2593 26.0944L13.2074 25.9554H12.0052C8.69916 25.5382 6.14451 24.1476 4.04066 21.7837C1.93682 19.4197 1.03518 16.6386 1.03518 13.3013C1.03518 9.82486 2.23737 6.90469 4.79204 4.40169C7.79752 1.48151 11.4041 0.0909424 15.7621 0.0909424Z" fill="#3B3C4B"/>
<path d="M51.8279 0.0909424C56.1859 0.0909424 59.7925 1.62059 62.9482 4.81888C64.451 6.20944 65.5029 8.01715 66.4045 10.103C67.3062 12.1888 67.757 14.2747 67.757 16.3605C67.757 20.8103 66.2543 25.2601 63.0985 29.7099C59.9427 34.2987 55.8853 38.0532 50.6257 41.2515C46.2678 43.8936 42.8115 45.2841 40.2568 45.2841C39.2049 45.2841 38.4535 45.006 37.7022 44.4498C37.1011 43.8936 36.6502 43.1983 36.6502 42.2249C36.6502 40.8344 37.5519 39.7219 39.5054 38.7485C44.0137 36.5236 47.47 34.4378 49.5738 32.2129C51.5274 30.2661 52.5793 28.7365 52.5793 27.7631C52.5793 26.9288 51.8279 26.3725 50.3252 26.0944L49.2733 25.9554H48.0711C44.765 25.5382 42.2104 24.1476 40.1065 21.7837C38.0027 19.4197 37.101 16.6386 37.101 13.3013C37.101 9.82486 38.3032 6.90469 40.8579 4.40169C43.7131 1.48151 47.3197 0.0909424 51.8279 0.0909424Z" fill="#3B3C4B"/>
</svg>
